<?xml version="1.0" encoding="UTF-8" standalone="no"?>
<svg width="331px" height="90px" viewBox="0 0 331 90" version="1.1" xmlns="http://www.w3.org/2000/svg" xmlns:xlink="http://www.w3.org/1999/xlink">
    <!-- Generator: Sketch 3.6.1 (26313) - http://www.bohemiancoding.com/sketch -->
    <title>Group 6</title>
    <desc>Created with Sketch.</desc>
    <defs></defs>
    <g id="Page-1" stroke="none" stroke-width="1" fill="none" fill-rule="evenodd">
        <g id="iPhone-6" transform="translate(-22.000000, -153.000000)">
            <g id="Group-6" transform="translate(22.000000, 153.000000)">
                <g id="Group-3" transform="translate(119.000000, 0.000000)">
                    <path d="M69.2413154,20 L57.7010962,40 L34.6206577,40 L23.0804385,20 L34.6206577,0 L57.7010962,0 L69.2413154,20 Z M92.3217539,20 L80.7815347,40 L69.2413154,40 L80.7815347,20 L69.2413154,0 L80.7815347,0 L92.3217539,20 Z M0,20 L11.5402192,40 L23.0804385,40 L11.5402192,20 L23.0804385,0 L11.5402192,0 L0,20 Z" id="Combined-Shape" fill="#5A5A5A"></path>
                    <path d="M57.7926852,20 L51.9309866,30 L40.3907673,30 L34.5290687,20 L40.3907673,10 L51.9309866,10 L57.7926852,20 Z M57.7010962,0 L51.9309866,10 L40.3907673,10 L34.6206577,0 L57.7010962,0 Z M51.9309866,30 L57.7926852,20 L69.2413154,20 L57.7010962,40 L51.9309866,30 Z M40.3907673,30 L34.5290687,20 L23.0804385,20 L34.6206577,40 L40.3907673,30 Z" id="Combined-Shape" fill="#FF9418"></path>
                </g>
                <g id="Group-5" transform="translate(0.000000, 60.000000)">
                    <path d="M124.750524,28.442449 C124.750524,28.8465306 125.066648,29.2102041 125.501318,29.2102041 L130.20366,29.2102041 C130.598814,29.2102041 130.954454,28.8465306 130.954454,28.442449 L130.954454,18.1383673 L133.681022,18.1383673 L138.93658,28.8465306 C139.015611,29.0081633 139.252704,29.2102041 139.568828,29.2102041 L144.824386,29.2102041 C145.496149,29.2102041 145.772757,28.5636735 145.496149,28.0383673 L140.082529,17.7746939 C143.520375,16.3604082 145.930819,13.3702041 145.930819,9.65265306 C145.930819,4.84408163 142.058303,0.924489796 137.316445,0.924489796 L125.501318,0.924489796 C125.066648,0.924489796 124.750524,1.28816327 124.750524,1.6922449 L124.750524,28.442449 Z M130.954454,13.0065306 L130.954454,6.70285714 L136.802744,6.70285714 C138.422879,6.70285714 139.80592,8.07673469 139.80592,9.77387755 C139.80592,11.4710204 138.422879,13.0065306 136.802744,13.0065306 L130.954454,13.0065306 Z M156.494623,28.442449 C156.494623,28.8465306 156.810747,29.2102041 157.245417,29.2102041 L173.604825,29.2102041 C174.039495,29.2102041 174.355619,28.8465306 174.355619,28.442449 L174.355619,24.0379592 C174.355619,23.6338776 174.039495,23.2702041 173.604825,23.2702041 L162.659038,23.2702041 L162.659038,17.815102 L171.668566,17.815102 C172.063721,17.815102 172.41936,17.4918367 172.41936,17.0473469 L172.41936,12.6428571 C172.41936,12.2387755 172.063721,11.875102 171.668566,11.875102 L162.659038,11.875102 L162.659038,6.8644898 L173.604825,6.8644898 C174.039495,6.8644898 174.355619,6.50081633 174.355619,6.09673469 L174.355619,1.6922449 C174.355619,1.28816327 174.039495,0.924489796 173.604825,0.924489796 L157.245417,0.924489796 C156.810747,0.924489796 156.494623,1.28816327 156.494623,1.6922449 L156.494623,28.442449 Z M182.034793,29.2102041 L186.381495,29.2102041 C187.171805,29.2102041 187.606475,28.7253061 187.804052,28.2404082 L189.22661,25.0077551 L199.974819,25.0077551 L201.397376,28.2 C201.753016,28.9677551 202.069139,29.2102041 202.780418,29.2102041 L207.166636,29.2102041 C207.759368,29.2102041 208.075492,28.684898 207.838399,28.1595918 L195.470055,0.964897959 C195.351508,0.72244898 195.0749,0.520408163 194.798292,0.520408163 L194.403137,0.520408163 C194.126529,0.520408163 193.84992,0.72244898 193.731374,0.964897959 L181.36303,28.1595918 C181.125937,28.684898 181.442061,29.2102041 182.034793,29.2102041 L182.034793,29.2102041 Z M191.597538,19.5122449 L194.561199,12.844898 L194.600714,12.844898 L197.603891,19.5122449 L191.597538,19.5122449 Z M214.095016,15.1077551 C214.095016,23.1893878 220.457008,29.6142857 228.360103,29.6142857 C231.876981,29.6142857 235.275311,28.3616327 237.962364,25.6946939 C238.238972,25.4118367 238.278488,24.8865306 238.001879,24.6036735 L234.919672,21.2497959 C234.682579,20.9669388 234.168878,20.9669388 233.89227,21.2093878 C232.469713,22.4620408 230.454423,23.1489796 228.597196,23.1489796 C224.131947,23.1489796 220.812647,19.4314286 220.812647,14.9461224 C220.812647,10.4204082 224.092432,6.62204082 228.55768,6.62204082 C230.493939,6.62204082 232.430197,7.34938776 233.89227,8.68285714 C234.168878,8.96571429 234.603548,8.96571429 234.880157,8.68285714 L237.962364,5.40979592 C238.278488,5.08653061 238.278488,4.60163265 237.922848,4.27836735 C235.235796,1.77306122 232.311651,0.520408163 228.360103,0.520408163 C220.457008,0.520408163 214.095016,7.02612245 214.095016,15.1077551 L214.095016,15.1077551 Z M251.529344,28.442449 C251.529344,28.8465306 251.884983,29.2102041 252.280138,29.2102041 L257.021995,29.2102041 C257.41715,29.2102041 257.772789,28.8465306 257.772789,28.442449 L257.772789,6.8644898 L263.423503,6.8644898 C263.858173,6.8644898 264.174297,6.50081633 264.174297,6.09673469 L264.174297,1.6922449 C264.174297,1.28816327 263.858173,0.924489796 263.423503,0.924489796 L245.878631,0.924489796 C245.443961,0.924489796 245.127837,1.28816327 245.127837,1.6922449 L245.127837,6.09673469 C245.127837,6.50081633 245.443961,6.8644898 245.878631,6.8644898 L251.529344,6.8644898 L251.529344,28.442449 Z M271.221223,15.1077551 C271.221223,23.1893878 277.504184,29.6142857 285.407279,29.6142857 C293.310375,29.6142857 299.632851,23.1893878 299.632851,15.1077551 C299.632851,7.02612245 293.310375,0.520408163 285.407279,0.520408163 C277.504184,0.520408163 271.221223,7.02612245 271.221223,15.1077551 L271.221223,15.1077551 Z M277.543699,15.1077551 C277.543699,10.6628571 281.100092,6.98571429 285.407279,6.98571429 C289.753982,6.98571429 293.310375,10.6628571 293.310375,15.1077551 C293.310375,19.5122449 289.753982,23.1489796 285.407279,23.1489796 C281.100092,23.1489796 277.543699,19.5122449 277.543699,15.1077551 L277.543699,15.1077551 Z M309.682954,28.442449 C309.682954,28.8465306 309.999077,29.2102041 310.433748,29.2102041 L315.136089,29.2102041 C315.531244,29.2102041 315.886883,28.8465306 315.886883,28.442449 L315.886883,18.1383673 L318.613451,18.1383673 L323.86901,28.8465306 C323.948041,29.0081633 324.185134,29.2102041 324.501257,29.2102041 L329.756816,29.2102041 C330.428579,29.2102041 330.705187,28.5636735 330.428579,28.0383673 L325.014959,17.7746939 C328.452805,16.3604082 330.863249,13.3702041 330.863249,9.65265306 C330.863249,4.84408163 326.990732,0.924489796 322.248875,0.924489796 L310.433748,0.924489796 C309.999077,0.924489796 309.682954,1.28816327 309.682954,1.6922449 L309.682954,28.442449 Z M315.886883,13.0065306 L315.886883,6.70285714 L321.735174,6.70285714 C323.355309,6.70285714 324.73835,8.07673469 324.73835,9.77387755 C324.73835,11.4710204 323.355309,13.0065306 321.735174,13.0065306 L315.886883,13.0065306 Z" id="TECHREACTOR" fill="#FF9419"></path>
                    <path d="M88.9758458,28.442449 C88.9758458,28.8465306 89.3314851,29.2102041 89.7266399,29.2102041 L94.4289816,29.2102041 C94.8636518,29.2102041 95.1797756,28.8465306 95.1797756,28.442449 L95.1797756,17.815102 L106.481202,17.815102 L106.481202,28.442449 C106.481202,28.8465306 106.797326,29.2102041 107.231996,29.2102041 L111.934338,29.2102041 C112.329492,29.2102041 112.685132,28.8465306 112.685132,28.442449 L112.685132,1.6922449 C112.685132,1.28816327 112.329492,0.924489796 111.934338,0.924489796 L107.231996,0.924489796 C106.797326,0.924489796 106.481202,1.28816327 106.481202,1.6922449 L106.481202,11.875102 L95.1797756,11.875102 L95.1797756,1.6922449 C95.1797756,1.28816327 94.8636518,0.924489796 94.4289816,0.924489796 L89.7266399,0.924489796 C89.3314851,0.924489796 88.9758458,1.28816327 88.9758458,1.6922449 L88.9758458,28.442449 Z M55.0979107,15.1077551 C55.0979107,23.1893878 61.4599024,29.6142857 69.3629977,29.6142857 C72.8798751,29.6142857 76.278206,28.3616327 78.9652584,25.6946939 C79.2418668,25.4118367 79.2813823,24.8865306 79.0047739,24.6036735 L75.9225668,21.2497959 C75.6854739,20.9669388 75.1717727,20.9669388 74.8951644,21.2093878 C73.4726072,22.4620408 71.4573179,23.1489796 69.6000905,23.1489796 C65.1348417,23.1489796 61.8155417,19.4314286 61.8155417,14.9461224 C61.8155417,10.4204082 65.0953262,6.62204082 69.5605751,6.62204082 C71.4968334,6.62204082 73.4330917,7.34938776 74.8951644,8.68285714 C75.1717727,8.96571429 75.6064429,8.96571429 75.8830513,8.68285714 L78.9652584,5.40979592 C79.2813823,5.08653061 79.2813823,4.60163265 78.925743,4.27836735 C76.2386906,1.77306122 73.3145453,0.520408163 69.3629977,0.520408163 C61.4599024,0.520408163 55.0979107,7.02612245 55.0979107,15.1077551 Z M28.6884006,28.442449 C28.6884006,28.8465306 29.0045244,29.2102041 29.4391946,29.2102041 L45.7986019,29.2102041 C46.2332721,29.2102041 46.5493959,28.8465306 46.5493959,28.442449 L46.5493959,24.0379592 C46.5493959,23.6338776 46.2332721,23.2702041 45.7986019,23.2702041 L34.8528149,23.2702041 L34.8528149,17.815102 L43.8623435,17.815102 C44.2574983,17.815102 44.6131376,17.4918367 44.6131376,17.0473469 L44.6131376,12.6428571 C44.6131376,12.2387755 44.2574983,11.875102 43.8623435,11.875102 L34.8528149,11.875102 L34.8528149,6.8644898 L45.7986019,6.8644898 C46.2332721,6.8644898 46.5493959,6.50081633 46.5493959,6.09673469 L46.5493959,1.6922449 C46.5493959,1.28816327 46.2332721,0.924489796 45.7986019,0.924489796 L29.4391946,0.924489796 C29.0045244,0.924489796 28.6884006,1.28816327 28.6884006,1.6922449 L28.6884006,28.442449 Z M6.82317026,28.442449 C6.82317026,28.8465306 7.17880955,29.2102041 7.57396432,29.2102041 L12.3158215,29.2102041 C12.7109763,29.2102041 13.0666155,28.8465306 13.0666155,28.442449 L13.0666155,6.8644898 L18.7173287,6.8644898 C19.1519989,6.8644898 19.4681227,6.50081633 19.4681227,6.09673469 L19.4681227,1.6922449 C19.4681227,1.28816327 19.1519989,0.924489796 18.7173287,0.924489796 L1.17245713,0.924489796 C0.73778689,0.924489796 0.421663078,1.28816327 0.421663078,1.6922449 L0.421663078,6.09673469 C0.421663078,6.50081633 0.73778689,6.8644898 1.17245713,6.8644898 L6.82317026,6.8644898 L6.82317026,28.442449 Z" id="Combined-Shape" fill="#5A5A5A"></path>
                </g>
            </g>
        </g>
    </g>
</svg>