<?xml version="1.0" encoding="UTF-8" standalone="no"?>
<svg width="45px" height="45px" viewBox="0 0 45 45" version="1.1" xmlns="http://www.w3.org/2000/svg" xmlns:xlink="http://www.w3.org/1999/xlink">
    <!-- Generator: Sketch 3.6.1 (26313) - http://www.bohemiancoding.com/sketch -->
    <title>Group</title>
    <desc>Created with Sketch.</desc>
    <defs></defs>
    <g id="Page-1" stroke="none" stroke-width="1" fill="none" fill-rule="evenodd">
        <g id="Artboard-27" transform="translate(-114.000000, -94.000000)" fill="#FFFFFF">
            <g id="Group" transform="translate(114.000000, 94.000000)">
                <path d="M3,22.5 C3,11.7304474 11.7304474,3 22.5,3 C33.2695526,3 42,11.7304474 42,22.5 C42,33.2695526 33.2695526,42 22.5,42 C11.7304474,42 3,33.2695526 3,22.5 Z M45,22.5 C45,10.0735931 34.9264069,0 22.5,0 C10.0735931,0 0,10.0735931 0,22.5 C0,34.9264069 10.0735931,45 22.5,45 C34.9264069,45 45,34.9264069 45,22.5 Z" id="Oval-1"></path>
                <path d="M22.5,20.375 L16.125,14 L14,16.125 L20.375,22.5 L14,28.875 L16.125,31 L22.5,24.625 L28.875,31 L31,28.875 L24.625,22.5 L31,16.125 L28.875,14 L22.5,20.375 Z" id="Combined-Shape"></path>
            </g>
        </g>
    </g>
</svg>