<?xml version="1.0" encoding="UTF-8" standalone="no"?>
<svg width="114px" height="49px" viewBox="0 0 114 49" version="1.1" xmlns="http://www.w3.org/2000/svg" xmlns:xlink="http://www.w3.org/1999/xlink">
    <!-- Generator: Sketch 3.6.1 (26313) - http://www.bohemiancoding.com/sketch -->
    <title>Group 3</title>
    <desc>Created with Sketch.</desc>
    <defs></defs>
    <g id="Page-1" stroke="none" stroke-width="1" fill="none" fill-rule="evenodd">
        <g id="GO-FOR-GOLD-jigga" transform="translate(-317.000000, -233.000000)">
            <g id="Group-3" transform="translate(317.000000, 233.000000)">
                <path d="M85.5,24.5 L71.25,49 L42.75,49 L28.5,24.5 L42.75,0 L71.25,0 L85.5,24.5 Z M114,24.5 L99.75,49 L85.5,49 L99.75,24.5 L85.5,0 L99.75,0 L114,24.5 Z M0,24.5 L14.25,49 L28.5,49 L14.25,24.5 L28.5,0 L14.25,0 L0,24.5 Z" id="Combined-Shape" fill="#5A5A5A"></path>
                <path d="M49.8800049,12.25 L42.75,0 L71.25,0 L64.125,12.25 L71.3630952,24.5 L71.3584622,24.5078412 L71.3584622,24.5078412 L85.5,24.5 L71.25,49 L64.125,36.75 L49.8858147,36.75 L49.8695323,36.7594006 L42.75,49 L28.5,24.5 L42.6361347,24.5 L42.6373035,24.4993252 L49.875,12.25 L49.8800049,12.25 L49.8800049,12.25 Z" id="Combined-Shape" fill="#FF9418"></path>
            </g>
        </g>
    </g>
</svg>