<?xml version="1.0" encoding="UTF-8" standalone="no"?>
<svg width="635px" height="49px" viewBox="0 0 635 49" version="1.1" xmlns="http://www.w3.org/2000/svg" xmlns:xlink="http://www.w3.org/1999/xlink">
    <!-- Generator: Sketch 3.6.1 (26313) - http://www.bohemiancoding.com/sketch -->
    <title>Group</title>
    <desc>Created with Sketch.</desc>
    <defs></defs>
    <g id="Page-1" stroke="none" stroke-width="1" fill="none" fill-rule="evenodd">
        <g id="full-desktop-logo" transform="translate(-84.000000, -43.000000)">
            <g id="Group" transform="translate(84.000000, 43.000000)">
                <g id="Group-3">
                    <path d="M85.5,24.5 L71.25,49 L42.75,49 L28.5,24.5 L42.75,0 L71.25,0 L85.5,24.5 Z M114,24.5 L99.75,49 L85.5,49 L99.75,24.5 L85.5,0 L99.75,0 L114,24.5 Z M0,24.5 L14.25,49 L28.5,49 L14.25,24.5 L28.5,0 L14.25,0 L0,24.5 Z" id="Combined-Shape" fill="#5A5A5A"></path>
                    <path d="M49.8800049,12.25 L42.75,0 L71.25,0 L64.125,12.25 L71.3630952,24.5 L71.3584622,24.5078412 L71.3584622,24.5078412 L85.5,24.5 L71.25,49 L64.125,36.75 L49.8858147,36.75 L49.8695323,36.7594006 L42.75,49 L28.5,24.5 L42.6361347,24.5 L42.6373035,24.4993252 L49.875,12.25 L49.8800049,12.25 L49.8800049,12.25 Z" id="Combined-Shape" fill="#FF9418"></path>
                </g>
                <path d="M321.78,44.46 C321.78,45.06 322.26,45.6 322.92,45.6 L330.06,45.6 C330.66,45.6 331.2,45.06 331.2,44.46 L331.2,29.16 L335.34,29.16 L343.32,45.06 C343.44,45.3 343.8,45.6 344.28,45.6 L352.26,45.6 C353.28,45.6 353.7,44.64 353.28,43.86 L345.06,28.62 C350.28,26.52 353.94,22.08 353.94,16.56 C353.94,9.42 348.06,3.6 340.86,3.6 L322.92,3.6 C322.26,3.6 321.78,4.14 321.78,4.74 L321.78,44.46 Z M331.2,21.54 L331.2,12.18 L340.08,12.18 C342.54,12.18 344.64,14.22 344.64,16.74 C344.64,19.26 342.54,21.54 340.08,21.54 L331.2,21.54 Z M369.98,44.46 C369.98,45.06 370.46,45.6 371.12,45.6 L395.96,45.6 C396.62,45.6 397.1,45.06 397.1,44.46 L397.1,37.92 C397.1,37.32 396.62,36.78 395.96,36.78 L379.34,36.78 L379.34,28.68 L393.02,28.68 C393.62,28.68 394.16,28.2 394.16,27.54 L394.16,21 C394.16,20.4 393.62,19.86 393.02,19.86 L379.34,19.86 L379.34,12.42 L395.96,12.42 C396.62,12.42 397.1,11.88 397.1,11.28 L397.1,4.74 C397.1,4.14 396.62,3.6 395.96,3.6 L371.12,3.6 C370.46,3.6 369.98,4.14 369.98,4.74 L369.98,44.46 Z M408.76,45.6 L415.36,45.6 C416.56,45.6 417.22,44.88 417.52,44.16 L419.68,39.36 L436,39.36 L438.16,44.1 C438.7,45.24 439.18,45.6 440.26,45.6 L446.92,45.6 C447.82,45.6 448.3,44.82 447.94,44.04 L429.16,3.66 C428.98,3.3 428.56,3 428.14,3 L427.54,3 C427.12,3 426.7,3.3 426.52,3.66 L407.74,44.04 C407.38,44.82 407.86,45.6 408.76,45.6 L408.76,45.6 Z M423.28,31.2 L427.78,21.3 L427.84,21.3 L432.4,31.2 L423.28,31.2 Z M457.44,24.66 C457.44,36.66 467.1,46.2 479.1,46.2 C484.44,46.2 489.6,44.34 493.68,40.38 C494.1,39.96 494.16,39.18 493.74,38.76 L489.06,33.78 C488.7,33.36 487.92,33.36 487.5,33.72 C485.34,35.58 482.28,36.6 479.46,36.6 C472.68,36.6 467.64,31.08 467.64,24.42 C467.64,17.7 472.62,12.06 479.4,12.06 C482.34,12.06 485.28,13.14 487.5,15.12 C487.92,15.54 488.58,15.54 489,15.12 L493.68,10.26 C494.16,9.78 494.16,9.06 493.62,8.58 C489.54,4.86 485.1,3 479.1,3 C467.1,3 457.44,12.66 457.44,24.66 L457.44,24.66 Z M514.28,44.46 C514.28,45.06 514.82,45.6 515.42,45.6 L522.62,45.6 C523.22,45.6 523.76,45.06 523.76,44.46 L523.76,12.42 L532.34,12.42 C533,12.42 533.48,11.88 533.48,11.28 L533.48,4.74 C533.48,4.14 533,3.6 532.34,3.6 L505.7,3.6 C505.04,3.6 504.56,4.14 504.56,4.74 L504.56,11.28 C504.56,11.88 505.04,12.42 505.7,12.42 L514.28,12.42 L514.28,44.46 Z M544.18,24.66 C544.18,36.66 553.72,46.2 565.72,46.2 C577.72,46.2 587.32,36.66 587.32,24.66 C587.32,12.66 577.72,3 565.72,3 C553.72,3 544.18,12.66 544.18,24.66 L544.18,24.66 Z M553.78,24.66 C553.78,18.06 559.18,12.6 565.72,12.6 C572.32,12.6 577.72,18.06 577.72,24.66 C577.72,31.2 572.32,36.6 565.72,36.6 C559.18,36.6 553.78,31.2 553.78,24.66 L553.78,24.66 Z M602.58,44.46 C602.58,45.06 603.06,45.6 603.72,45.6 L610.86,45.6 C611.46,45.6 612,45.06 612,44.46 L612,29.16 L616.14,29.16 L624.12,45.06 C624.24,45.3 624.6,45.6 625.08,45.6 L633.06,45.6 C634.08,45.6 634.5,44.64 634.08,43.86 L625.86,28.62 C631.08,26.52 634.74,22.08 634.74,16.56 C634.74,9.42 628.86,3.6 621.66,3.6 L603.72,3.6 C603.06,3.6 602.58,4.14 602.58,4.74 L602.58,44.46 Z M612,21.54 L612,12.18 L620.88,12.18 C623.34,12.18 625.44,14.22 625.44,16.74 C625.44,19.26 623.34,21.54 620.88,21.54 L612,21.54 Z" id="TECHREACTOR" fill="#FF9419"></path>
                <path d="M267.46,44.46 C267.46,45.06 268,45.6 268.6,45.6 L275.74,45.6 C276.4,45.6 276.88,45.06 276.88,44.46 L276.88,28.68 L294.04,28.68 L294.04,44.46 C294.04,45.06 294.52,45.6 295.18,45.6 L302.32,45.6 C302.92,45.6 303.46,45.06 303.46,44.46 L303.46,4.74 C303.46,4.14 302.92,3.6 302.32,3.6 L295.18,3.6 C294.52,3.6 294.04,4.14 294.04,4.74 L294.04,19.86 L276.88,19.86 L276.88,4.74 C276.88,4.14 276.4,3.6 275.74,3.6 L268.6,3.6 C268,3.6 267.46,4.14 267.46,4.74 L267.46,44.46 Z M216.02,24.66 C216.02,36.66 225.68,46.2 237.68,46.2 C243.02,46.2 248.18,44.34 252.26,40.38 C252.68,39.96 252.74,39.18 252.32,38.76 L247.64,33.78 C247.28,33.36 246.5,33.36 246.08,33.72 C243.92,35.58 240.86,36.6 238.04,36.6 C231.26,36.6 226.22,31.08 226.22,24.42 C226.22,17.7 231.2,12.06 237.98,12.06 C240.92,12.06 243.86,13.14 246.08,15.12 C246.5,15.54 247.16,15.54 247.58,15.12 L252.26,10.26 C252.74,9.78 252.74,9.06 252.2,8.58 C248.12,4.86 243.68,3 237.68,3 C225.68,3 216.02,12.66 216.02,24.66 Z M175.92,44.46 C175.92,45.06 176.4,45.6 177.06,45.6 L201.9,45.6 C202.56,45.6 203.04,45.06 203.04,44.46 L203.04,37.92 C203.04,37.32 202.56,36.78 201.9,36.78 L185.28,36.78 L185.28,28.68 L198.96,28.68 C199.56,28.68 200.1,28.2 200.1,27.54 L200.1,21 C200.1,20.4 199.56,19.86 198.96,19.86 L185.28,19.86 L185.28,12.42 L201.9,12.42 C202.56,12.42 203.04,11.88 203.04,11.28 L203.04,4.74 C203.04,4.14 202.56,3.6 201.9,3.6 L177.06,3.6 C176.4,3.6 175.92,4.14 175.92,4.74 L175.92,44.46 Z M142.72,44.46 C142.72,45.06 143.26,45.6 143.86,45.6 L151.06,45.6 C151.66,45.6 152.2,45.06 152.2,44.46 L152.2,12.42 L160.78,12.42 C161.44,12.42 161.92,11.88 161.92,11.28 L161.92,4.74 C161.92,4.14 161.44,3.6 160.78,3.6 L134.14,3.6 C133.48,3.6 133,4.14 133,4.74 L133,11.28 C133,11.88 133.48,12.42 134.14,12.42 L142.72,12.42 L142.72,44.46 Z" id="Combined-Shape" fill="#5A5A5A"></path>
            </g>
        </g>
    </g>
</svg>